<mxfile host="app.diagrams.net" agent="Mozilla/5.0 (Windows NT 10.0; Win64; x64) AppleWebKit/537.36 (KHTML, like Gecko) Chrome/127.0.0.0 Safari/537.36 OPR/113.0.0.0" version="24.7.17" pages="2">
  <diagram name="3a" id="c_y0ejWnvKStQdfJbsce">
    <mxGraphModel dx="1393" dy="755" grid="1" gridSize="10" guides="1" tooltips="1" connect="1" arrows="1" fold="1" page="1" pageScale="1" pageWidth="827" pageHeight="1169" math="0" shadow="0">
      <root>
        <mxCell id="0" />
        <mxCell id="1" parent="0" />
        <mxCell id="ZbV-RwT4LBdSKJ_pXQ0E-1" value="&lt;font style=&quot;font-size: 24px;&quot;&gt;+9*52&lt;/font&gt;" style="text;html=1;align=center;verticalAlign=middle;resizable=0;points=[];autosize=1;strokeColor=none;fillColor=none;" vertex="1" parent="1">
          <mxGeometry x="324" y="83" width="90" height="40" as="geometry" />
        </mxCell>
        <mxCell id="ZbV-RwT4LBdSKJ_pXQ0E-2" value="&lt;font style=&quot;font-size: 24px;&quot;&gt;+&lt;/font&gt;" style="text;html=1;align=center;verticalAlign=middle;resizable=0;points=[];autosize=1;strokeColor=none;fillColor=none;" vertex="1" parent="1">
          <mxGeometry x="355" y="130" width="40" height="40" as="geometry" />
        </mxCell>
        <mxCell id="ZbV-RwT4LBdSKJ_pXQ0E-3" value="&lt;span style=&quot;font-size: 24px;&quot;&gt;9&lt;/span&gt;" style="text;html=1;align=center;verticalAlign=middle;resizable=0;points=[];autosize=1;strokeColor=none;fillColor=none;" vertex="1" parent="1">
          <mxGeometry x="300" y="190" width="40" height="40" as="geometry" />
        </mxCell>
        <mxCell id="ZbV-RwT4LBdSKJ_pXQ0E-4" value="&lt;span style=&quot;font-size: 24px;&quot;&gt;*&lt;/span&gt;" style="text;html=1;align=center;verticalAlign=middle;resizable=0;points=[];autosize=1;strokeColor=none;fillColor=none;" vertex="1" parent="1">
          <mxGeometry x="440" y="190" width="30" height="40" as="geometry" />
        </mxCell>
        <mxCell id="ZbV-RwT4LBdSKJ_pXQ0E-5" value="&lt;span style=&quot;font-size: 24px;&quot;&gt;5&lt;/span&gt;" style="text;html=1;align=center;verticalAlign=middle;resizable=0;points=[];autosize=1;strokeColor=none;fillColor=none;" vertex="1" parent="1">
          <mxGeometry x="374" y="240" width="40" height="40" as="geometry" />
        </mxCell>
        <mxCell id="ZbV-RwT4LBdSKJ_pXQ0E-6" value="&lt;span style=&quot;font-size: 24px;&quot;&gt;2&lt;/span&gt;" style="text;html=1;align=center;verticalAlign=middle;resizable=0;points=[];autosize=1;strokeColor=none;fillColor=none;" vertex="1" parent="1">
          <mxGeometry x="510" y="240" width="40" height="40" as="geometry" />
        </mxCell>
        <mxCell id="ZbV-RwT4LBdSKJ_pXQ0E-7" value="" style="endArrow=none;html=1;rounded=0;exitX=0.725;exitY=0.125;exitDx=0;exitDy=0;exitPerimeter=0;" edge="1" parent="1" source="ZbV-RwT4LBdSKJ_pXQ0E-3">
          <mxGeometry width="50" height="50" relative="1" as="geometry">
            <mxPoint x="340" y="190" as="sourcePoint" />
            <mxPoint x="370" y="160" as="targetPoint" />
          </mxGeometry>
        </mxCell>
        <mxCell id="ZbV-RwT4LBdSKJ_pXQ0E-9" value="" style="endArrow=none;html=1;rounded=0;exitX=0.033;exitY=0.075;exitDx=0;exitDy=0;exitPerimeter=0;entryX=0.925;entryY=0.75;entryDx=0;entryDy=0;entryPerimeter=0;" edge="1" parent="1" source="ZbV-RwT4LBdSKJ_pXQ0E-4" target="ZbV-RwT4LBdSKJ_pXQ0E-2">
          <mxGeometry width="50" height="50" relative="1" as="geometry">
            <mxPoint x="355" y="205" as="sourcePoint" />
            <mxPoint x="396" y="170" as="targetPoint" />
          </mxGeometry>
        </mxCell>
        <mxCell id="ZbV-RwT4LBdSKJ_pXQ0E-10" value="" style="endArrow=none;html=1;rounded=0;exitX=0.725;exitY=0.125;exitDx=0;exitDy=0;exitPerimeter=0;" edge="1" parent="1">
          <mxGeometry width="50" height="50" relative="1" as="geometry">
            <mxPoint x="405" y="245" as="sourcePoint" />
            <mxPoint x="446" y="210" as="targetPoint" />
          </mxGeometry>
        </mxCell>
        <mxCell id="ZbV-RwT4LBdSKJ_pXQ0E-12" value="" style="endArrow=none;html=1;rounded=0;exitX=0.033;exitY=0.075;exitDx=0;exitDy=0;exitPerimeter=0;entryX=0.925;entryY=0.75;entryDx=0;entryDy=0;entryPerimeter=0;" edge="1" parent="1">
          <mxGeometry width="50" height="50" relative="1" as="geometry">
            <mxPoint x="519" y="240" as="sourcePoint" />
            <mxPoint x="470" y="207" as="targetPoint" />
          </mxGeometry>
        </mxCell>
      </root>
    </mxGraphModel>
  </diagram>
  <diagram id="tPSyfJhxN7NQHL7-VFhX" name="3b">
    <mxGraphModel dx="1393" dy="755" grid="1" gridSize="10" guides="1" tooltips="1" connect="1" arrows="1" fold="1" page="1" pageScale="1" pageWidth="827" pageHeight="1169" math="0" shadow="0">
      <root>
        <mxCell id="0" />
        <mxCell id="1" parent="0" />
        <mxCell id="o9iQFegtH7qwCoppNyy8-1" value="&lt;font style=&quot;font-size: 24px;&quot;&gt;+*952&lt;/font&gt;" style="text;html=1;align=center;verticalAlign=middle;resizable=0;points=[];autosize=1;strokeColor=none;fillColor=none;" vertex="1" parent="1">
          <mxGeometry x="324" y="83" width="90" height="40" as="geometry" />
        </mxCell>
        <mxCell id="o9iQFegtH7qwCoppNyy8-2" value="&lt;font style=&quot;font-size: 24px;&quot;&gt;+&lt;/font&gt;" style="text;html=1;align=center;verticalAlign=middle;resizable=0;points=[];autosize=1;strokeColor=none;fillColor=none;" vertex="1" parent="1">
          <mxGeometry x="355" y="130" width="40" height="40" as="geometry" />
        </mxCell>
        <mxCell id="o9iQFegtH7qwCoppNyy8-3" value="&lt;span style=&quot;font-size: 24px;&quot;&gt;9&lt;/span&gt;" style="text;html=1;align=center;verticalAlign=middle;resizable=0;points=[];autosize=1;strokeColor=none;fillColor=none;" vertex="1" parent="1">
          <mxGeometry x="300" y="190" width="40" height="40" as="geometry" />
        </mxCell>
        <mxCell id="o9iQFegtH7qwCoppNyy8-4" value="&lt;span style=&quot;font-size: 24px;&quot;&gt;*&lt;/span&gt;" style="text;html=1;align=center;verticalAlign=middle;resizable=0;points=[];autosize=1;strokeColor=none;fillColor=none;" vertex="1" parent="1">
          <mxGeometry x="440" y="190" width="30" height="40" as="geometry" />
        </mxCell>
        <mxCell id="o9iQFegtH7qwCoppNyy8-5" value="&lt;span style=&quot;font-size: 24px;&quot;&gt;5&lt;/span&gt;" style="text;html=1;align=center;verticalAlign=middle;resizable=0;points=[];autosize=1;strokeColor=none;fillColor=none;" vertex="1" parent="1">
          <mxGeometry x="374" y="240" width="40" height="40" as="geometry" />
        </mxCell>
        <mxCell id="o9iQFegtH7qwCoppNyy8-6" value="&lt;span style=&quot;font-size: 24px;&quot;&gt;2&lt;/span&gt;" style="text;html=1;align=center;verticalAlign=middle;resizable=0;points=[];autosize=1;strokeColor=none;fillColor=none;" vertex="1" parent="1">
          <mxGeometry x="510" y="240" width="40" height="40" as="geometry" />
        </mxCell>
        <mxCell id="o9iQFegtH7qwCoppNyy8-7" value="" style="endArrow=none;html=1;rounded=0;exitX=0.725;exitY=0.125;exitDx=0;exitDy=0;exitPerimeter=0;" edge="1" parent="1" source="o9iQFegtH7qwCoppNyy8-3">
          <mxGeometry width="50" height="50" relative="1" as="geometry">
            <mxPoint x="340" y="190" as="sourcePoint" />
            <mxPoint x="370" y="160" as="targetPoint" />
          </mxGeometry>
        </mxCell>
        <mxCell id="o9iQFegtH7qwCoppNyy8-8" value="" style="endArrow=none;html=1;rounded=0;exitX=0.033;exitY=0.075;exitDx=0;exitDy=0;exitPerimeter=0;entryX=0.925;entryY=0.75;entryDx=0;entryDy=0;entryPerimeter=0;" edge="1" parent="1" source="o9iQFegtH7qwCoppNyy8-4" target="o9iQFegtH7qwCoppNyy8-2">
          <mxGeometry width="50" height="50" relative="1" as="geometry">
            <mxPoint x="355" y="205" as="sourcePoint" />
            <mxPoint x="396" y="170" as="targetPoint" />
          </mxGeometry>
        </mxCell>
        <mxCell id="o9iQFegtH7qwCoppNyy8-9" value="" style="endArrow=none;html=1;rounded=0;exitX=0.725;exitY=0.125;exitDx=0;exitDy=0;exitPerimeter=0;" edge="1" parent="1">
          <mxGeometry width="50" height="50" relative="1" as="geometry">
            <mxPoint x="405" y="245" as="sourcePoint" />
            <mxPoint x="446" y="210" as="targetPoint" />
          </mxGeometry>
        </mxCell>
        <mxCell id="o9iQFegtH7qwCoppNyy8-10" value="" style="endArrow=none;html=1;rounded=0;exitX=0.033;exitY=0.075;exitDx=0;exitDy=0;exitPerimeter=0;entryX=0.925;entryY=0.75;entryDx=0;entryDy=0;entryPerimeter=0;" edge="1" parent="1">
          <mxGeometry width="50" height="50" relative="1" as="geometry">
            <mxPoint x="519" y="240" as="sourcePoint" />
            <mxPoint x="470" y="207" as="targetPoint" />
          </mxGeometry>
        </mxCell>
      </root>
    </mxGraphModel>
  </diagram>
</mxfile>
